HIERARCHY
ROOT Hips
{
OFFSET -0.1795 -22.3333 2.8219000000000003
	CHANNELS 6 Xposition Yposition Zposition Zrotation Yrotation Xrotation 
	JOINT LeftUpLeg
	{
OFFSET 6.952 -9.140600000000001 -0.6815
		CHANNELS 3 Zrotation Yrotation Xrotation
		JOINT LeftLeg
		{
OFFSET 3.4277 -37.5199 -0.4496
			CHANNELS 3 Zrotation Yrotation Xrotation
			JOINT LeftFoot
			{
OFFSET -1.3596000000000001 -39.7961 -4.3693
				CHANNELS 3 Zrotation Yrotation Xrotation
				JOINT LeftToe
				{
OFFSET 2.6358 -5.5791 11.9288
					CHANNELS 3 Zrotation Yrotation Xrotation
					End Site
					{
OFFSET 0.0 0.0 0.0
					}
				}
			}
		}
	}
	JOINT RightUpLeg
	{
OFFSET -6.7669999999999995 -9.052200000000001 -0.432
		CHANNELS 3 Zrotation Yrotation Xrotation
		JOINT RightLeg
		{
OFFSET -3.8289999999999997 -38.2569 -0.885
			CHANNELS 3 Zrotation Yrotation Xrotation
			JOINT RightFoot
			{
OFFSET 1.5774 -39.8415 -4.2312
				CHANNELS 3 Zrotation Yrotation Xrotation
				JOINT RightToe
				{
OFFSET -2.5372 -4.8144 12.3348
					CHANNELS 3 Zrotation Yrotation Xrotation
					End Site
					{
OFFSET 0.0 0.0 0.0
					}
				}
			}
		}
	}
	JOINT Spine
	{
OFFSET -0.2533 10.8963 -2.6696
		CHANNELS 3 Zrotation Yrotation Xrotation
		JOINT Spine1
		{
OFFSET 0.5487 13.517999999999999 0.1092
			CHANNELS 3 Zrotation Yrotation Xrotation
			JOINT Spine2
			{
OFFSET 0.1457 5.292199999999999 2.5425
				CHANNELS 3 Zrotation Yrotation Xrotation
				JOINT Neck
				{
OFFSET -0.2778 21.387 -4.2857
					CHANNELS 3 Zrotation Yrotation Xrotation
					JOINT Head
					{
OFFSET 0.5152 6.497 5.1349
						CHANNELS 3 Zrotation Yrotation Xrotation
						End Site
						{
OFFSET 0.0 0.0 0.0
						}
					}
				}
				JOINT LeftShoulder
				{
OFFSET 7.8845 12.1749 -3.4090000000000003
					CHANNELS 3 Zrotation Yrotation Xrotation
					JOINT LeftArm
					{
OFFSET 9.0977 3.0469 -0.8867999999999999
						CHANNELS 3 Zrotation Yrotation Xrotation
						JOINT LeftForeArm
						{
OFFSET 25.9612 -1.2772000000000001 -2.7456
							CHANNELS 3 Zrotation Yrotation Xrotation
							JOINT LeftHand
							{
OFFSET 24.9234 0.8986 -0.1171
								CHANNELS 3 Zrotation Yrotation Xrotation
								End Site
								{
OFFSET 0.0 0.0 0.0
								}
							}
						}
					}
				}
				JOINT RightShoulder
				{
OFFSET -8.1759 11.8833 -3.8614999999999995
					CHANNELS 3 Zrotation Yrotation Xrotation
					JOINT RightArm
					{
OFFSET -9.6012 3.2550999999999997 -0.9143
						CHANNELS 3 Zrotation Yrotation Xrotation
						JOINT RightForeArm
						{
OFFSET -25.374200000000002 -1.3329 -2.1401
							CHANNELS 3 Zrotation Yrotation Xrotation
							JOINT RightHand
							{
OFFSET -25.5298 0.7772 -0.5559
								CHANNELS 3 Zrotation Yrotation Xrotation
								End Site
								{
OFFSET 0.0 0.0 0.0
								}
							}
						}
					}
				}
			}
		}
	}
}
MOTION
Frames: 15
Frame Time: 0.050000
0.0 96.3049 0.0 -0.712519 1.147793 -0.126209 3.714893 0.367024 7.387253 -2.393384 0.348728 -7.443540 0.677530 6.104140 12.734370 0.000000 0.000000 0.000000 -2.528866 -0.252846 3.824008 2.069833 -0.296378 -3.336168 0.259535 -3.914263 10.751354 0.000000 0.000000 0.000000 3.704132 -0.188524 2.175591 -2.848433 1.329200 -21.708552 -1.756736 2.549578 28.039481 7.729567 -1.928876 -29.143598 0.000000 0.000000 0.000000 -23.493449 -7.645818 2.082838 -50.495075 -4.635955 -6.163524 -9.627356 -24.156622 3.095530 0.000000 0.000000 0.000000 27.703902 -1.416073 -1.352912 55.403431 6.722897 -5.174637 5.414515 24.402931 2.407387 0.000000 0.000000 0.000000
-0.0063 96.184 0.024399999999999998 -0.606030 0.573132 0.428376 3.913371 0.335126 6.976888 -2.602576 0.364993 -7.734181 0.730163 5.913114 12.043687 0.000000 0.000000 0.000000 -3.018539 -0.119918 2.536471 2.637956 -0.317884 -2.132631 0.084971 -3.860808 9.415087 0.000000 0.000000 0.000000 3.997540 -0.153690 1.520077 -3.561198 1.504963 -21.576992 -1.793547 2.655257 28.017203 8.642419 -2.496799 -28.958945 0.000000 0.000000 0.000000 -23.141914 -7.617165 2.177491 -50.751656 -4.590209 -6.232052 -9.126402 -24.172826 3.001105 0.000000 0.000000 0.000000 27.263240 -1.769183 -1.699872 56.886730 5.983462 -5.510151 5.155282 26.020576 2.554121 0.000000 0.000000 0.000000
-0.0098 96.1471 0.029300000000000003 -0.328446 0.509114 0.540387 3.729270 0.308102 6.245737 -2.872024 0.362550 -6.000595 0.526735 5.285069 11.106926 0.000000 0.000000 0.000000 -2.863688 -0.121809 2.491673 2.013478 -0.268170 -2.413246 0.066827 -3.968917 9.590550 0.000000 0.000000 0.000000 4.198231 -0.141535 1.287148 -4.153219 1.655784 -21.849350 -1.585434 2.578640 28.431309 7.873983 -2.131149 -28.835631 0.000000 0.000000 0.000000 -22.045805 -8.202208 2.619465 -51.213501 -4.933996 -6.221914 -9.406640 -23.916966 3.034940 0.000000 0.000000 0.000000 27.560697 -1.452580 -1.542257 56.471375 6.277009 -5.394781 4.962053 25.769273 2.473966 0.000000 0.000000 0.000000
-0.021 96.166 0.0456 -0.344239 0.284658 0.658426 3.620341 0.329087 6.427273 -2.717655 0.356882 -6.129843 0.525192 5.203368 10.931751 0.000000 0.000000 0.000000 -3.109760 -0.104756 2.450265 2.581489 -0.317211 -2.511686 -0.178104 -4.509809 9.648185 0.000000 0.000000 0.000000 4.570589 -0.124448 0.956822 -4.574223 1.756680 -22.051360 -1.619592 2.984905 28.776033 8.694174 -2.540440 -28.909104 0.000000 0.000000 0.000000 -21.784029 -8.788508 2.889740 -51.393825 -4.421924 -6.456869 -9.387986 -24.456846 3.095488 0.000000 0.000000 0.000000 28.512702 -1.527713 -1.528890 56.008473 6.443223 -5.374664 5.228402 25.978676 2.577837 0.000000 0.000000 0.000000
-0.032600000000000004 96.16550000000001 0.0655 -0.344916 0.213209 0.674801 3.471031 0.332127 6.285020 -2.562153 0.345133 -5.777921 0.617517 5.256429 10.626551 0.000000 0.000000 0.000000 -3.025522 -0.110107 2.482526 2.522867 -0.314200 -2.656557 -0.471872 -4.974123 9.247307 0.000000 0.000000 0.000000 4.296957 -0.134040 1.142305 -4.104547 1.638113 -21.699451 -1.710110 2.780278 28.182667 8.294044 -2.460031 -28.076528 0.000000 0.000000 0.000000 -21.814513 -8.568494 2.814074 -51.499058 -4.282728 -6.475344 -10.091057 -24.929266 3.321419 0.000000 0.000000 0.000000 28.288857 -1.138980 -1.385302 55.823277 6.507478 -5.233566 5.550501 25.740397 2.583813 0.000000 0.000000 0.000000
-0.0414 96.1638 0.0944 -0.370450 0.028043 0.575038 3.371193 0.347484 6.365733 -2.270597 0.326872 -5.610756 0.722921 5.317739 10.310636 0.000000 0.000000 0.000000 -2.957808 -0.125984 2.666268 2.553119 -0.316238 -2.682505 -0.641768 -5.358873 9.306094 0.000000 0.000000 0.000000 4.065669 -0.127429 1.136257 -3.846460 1.562956 -22.018768 -1.558203 2.620409 28.648420 7.974921 -2.370281 -27.887130 0.000000 0.000000 0.000000 -22.016158 -8.295708 2.763011 -51.565682 -4.211135 -6.579742 -10.064342 -25.526934 3.423735 0.000000 0.000000 0.000000 27.961191 -0.584785 -1.087798 55.862718 6.573791 -5.229407 5.482717 25.826083 2.566163 0.000000 0.000000 0.000000
-0.053399999999999996 96.12049999999999 0.124 -0.429106 0.030135 0.631608 3.342804 0.341317 6.245091 -2.192733 0.320029 -5.468664 0.782386 5.447122 10.404912 0.000000 0.000000 0.000000 -2.642072 -0.139656 2.651603 2.331171 -0.300555 -2.820159 -0.789283 -5.636495 9.244578 0.000000 0.000000 0.000000 3.894841 -0.135851 1.283976 -3.546195 1.484422 -22.022929 -1.629173 2.511177 28.491303 8.061231 -2.452137 -27.767665 0.000000 0.000000 0.000000 -22.134042 -8.011560 2.625935 -51.616855 -4.199845 -6.584642 -10.310439 -25.841727 3.533444 0.000000 0.000000 0.000000 27.983552 -0.278836 -0.934821 55.898820 6.622592 -5.184921 5.659824 26.009121 2.616943 0.000000 0.000000 0.000000
-0.0638 96.0692 0.156 -0.513983 -0.116863 0.654837 3.293318 0.332204 6.015861 -1.909778 0.296942 -5.089704 0.850183 5.375818 9.841983 0.000000 0.000000 0.000000 -2.383382 -0.147146 2.605285 2.260438 -0.293341 -2.783631 -1.016994 -6.039908 9.018524 0.000000 0.000000 0.000000 4.077808 -0.139944 1.282005 -3.772717 1.540398 -22.011233 -1.479161 2.510316 28.592055 8.232630 -2.595174 -27.607800 0.000000 0.000000 0.000000 -22.031340 -8.129744 2.733178 -51.741476 -4.332104 -6.566847 -10.349380 -26.270414 3.614441 0.000000 0.000000 0.000000 27.893999 -0.260684 -0.951898 56.037665 6.693407 -5.162272 6.094027 26.049518 2.713126 0.000000 0.000000 0.000000
-0.0747 96.0251 0.1854 -0.539709 -0.283299 0.667297 3.309287 0.328192 5.932714 -1.980481 0.300392 -4.975283 0.957082 5.530644 9.804356 0.000000 0.000000 0.000000 -2.226333 -0.151390 2.579754 2.181307 -0.290531 -2.996422 -0.995014 -6.084915 9.242634 0.000000 0.000000 0.000000 3.935526 -0.137074 1.282873 -3.599832 1.492871 -21.925832 -1.431028 2.701192 28.552588 8.166197 -2.548098 -27.550345 0.000000 0.000000 0.000000 -21.936091 -7.922675 2.588508 -51.871224 -4.577288 -6.472143 -10.420196 -26.145511 3.610465 0.000000 0.000000 0.000000 27.824429 -0.216278 -0.888696 56.053552 6.664195 -5.179202 6.330119 26.221203 2.789658 0.000000 0.000000 0.000000
-0.0892 95.99419999999999 0.21320000000000003 -0.554102 -0.430391 0.747950 3.245907 0.330123 5.874794 -1.971913 0.299480 -4.915458 0.985227 5.452740 9.435248 0.000000 0.000000 0.000000 -2.030756 -0.145821 2.414304 2.046426 -0.276990 -2.895323 -0.952206 -5.917963 8.947019 0.000000 0.000000 0.000000 3.779712 -0.129127 1.207348 -3.444819 1.450038 -21.778772 -1.378978 2.662549 28.438956 8.244818 -2.587482 -27.706378 0.000000 0.000000 0.000000 -22.003889 -7.821253 2.568415 -52.027503 -4.578964 -6.485588 -10.380258 -26.267681 3.628436 0.000000 0.000000 0.000000 27.699043 0.025145 -0.781831 56.107294 6.602519 -5.181305 6.609452 26.269066 2.845335 0.000000 0.000000 0.000000
-0.1015 95.96379999999999 0.2352 -0.534130 -0.524991 0.782659 3.286364 0.322010 5.769890 -2.002740 0.300488 -4.824312 0.802200 5.102892 9.352975 0.000000 0.000000 0.000000 -1.970488 -0.143957 2.367096 2.039947 -0.276382 -2.913420 -0.926122 -5.876279 8.951992 0.000000 0.000000 0.000000 3.860625 -0.131969 1.217190 -3.566301 1.480536 -21.709297 -1.397503 2.830889 28.368794 8.330780 -2.587656 -27.886833 0.000000 0.000000 0.000000 -22.089344 -8.084545 2.680539 -51.889315 -4.629166 -6.430271 -10.145580 -26.264552 3.563556 0.000000 0.000000 0.000000 27.688568 0.067788 -0.713667 56.212897 6.458850 -5.254071 6.709977 26.378239 2.887216 0.000000 0.000000 0.000000
-0.11299999999999999 95.9769 0.2515 -0.475964 -0.620197 0.776546 3.185772 0.333522 5.824133 -2.015875 0.302608 -4.856593 0.802441 5.087059 9.326773 0.000000 0.000000 0.000000 -1.879326 -0.139568 2.270905 2.042989 -0.269312 -2.598021 -0.930167 -5.807986 8.691968 0.000000 0.000000 0.000000 3.823822 -0.144086 1.392437 -3.552714 1.474945 -21.731462 -1.393131 2.934300 28.415170 8.404233 -2.554689 -28.345514 0.000000 0.000000 0.000000 -22.123580 -8.297898 2.793914 -51.763251 -4.864551 -6.320644 -10.086645 -26.248432 3.544114 0.000000 0.000000 0.000000 27.702770 0.095521 -0.680690 56.231042 6.510892 -5.239688 6.793842 26.201811 2.883030 0.000000 0.000000 0.000000
-0.1222 95.9809 0.2645 -0.497519 -0.640867 0.796015 3.143906 0.340424 5.887816 -2.019945 0.305758 -5.025047 0.887199 5.265283 9.436769 0.000000 0.000000 0.000000 -1.802414 -0.131046 2.128786 2.032155 -0.263034 -2.351004 -0.902434 -5.697765 8.525538 0.000000 0.000000 0.000000 3.913131 -0.158908 1.559480 -3.582078 1.483923 -21.530258 -1.512575 2.890574 28.256597 8.438729 -2.517130 -28.754260 0.000000 0.000000 0.000000 -22.236467 -8.537008 2.940165 -51.511769 -5.164252 -6.152633 -9.810217 -26.228917 3.472710 0.000000 0.000000 0.000000 27.835330 0.301755 -0.580924 56.244001 6.561410 -5.195037 6.538729 26.028209 2.796587 0.000000 0.000000 0.000000
-0.13060000000000002 95.9941 0.2758 -0.451255 -0.740024 0.831853 3.036492 0.355669 5.996492 -1.993994 0.308849 -5.291322 0.945831 5.397914 9.575628 0.000000 0.000000 0.000000 -1.882826 -0.118971 2.036039 2.142433 -0.266942 -2.112578 -0.899452 -5.654582 8.384353 0.000000 0.000000 0.000000 3.999897 -0.172796 1.709798 -3.646649 1.500204 -21.393709 -1.653617 3.103730 28.201725 8.651821 -2.536066 -29.228768 0.000000 0.000000 0.000000 -22.195239 -9.067672 3.197534 -51.288441 -5.345115 -6.035028 -9.637234 -26.490760 3.456680 0.000000 0.000000 0.000000 27.997605 0.332488 -0.514693 56.193034 6.569496 -5.196373 6.470065 26.127235 2.800251 0.000000 0.000000 0.000000
-0.1404 96.0322 0.28500000000000003 -0.431642 -0.459938 0.837797 3.006059 0.365969 6.182405 -1.976779 0.313009 -5.688594 0.851526 5.357064 9.886982 0.000000 0.000000 0.000000 -1.961606 -0.113322 1.990406 2.209333 -0.268480 -1.836386 -0.846136 -5.510317 8.363262 0.000000 0.000000 0.000000 3.970190 -0.182350 1.843952 -3.593066 1.492716 -21.266554 -1.769073 2.843052 28.247305 8.608711 -2.473380 -29.600188 0.000000 0.000000 0.000000 -22.274612 -9.298395 3.356369 -50.983817 -5.624762 -5.895932 -9.508946 -26.801925 3.471337 0.000000 0.000000 0.000000 27.897445 0.392116 -0.497942 56.379538 6.525801 -5.219622 6.154764 26.044714 2.719588 0.000000 0.000000 0.000000
